<svg width="300" height="60" viewBox="0 0 300 60" fill="none" xmlns="http://www.w3.org/2000/svg">
<path d="M97.5 28H27.5C24.7386 28 24 29.1193 24 30.5C24 31.8807 24.7386 33 27.5 33H97.5C100.261 33 101 31.8807 101 30.5C101 29.1193 100.261 28 97.5 28Z" fill="#D49711"/>
<path d="M283.5 28H213.5C210.739 28 210 29.1193 210 30.5C210 31.8807 210.739 33 213.5 33H283.5C286.261 33 287 31.8807 287 30.5C287 29.1193 286.261 28 283.5 28Z" fill="#D49711"/>
<path d="M164.48 24.3217L167.54 28.4505L172.173 26.9358L169.322 31.2872L172.381 35.416L167.51 33.5891L164.658 37.9405L164.688 32.8019L159.817 30.975L164.451 29.4603L164.48 24.3217Z" fill="#D49711"/>
<g clip-path="url(#clip0_2104_3)">
<path d="M149.181 16.0122C148.733 16.0628 148.157 16.1472 147.819 16.2116C145.279 16.7078 142.901 17.9006 140.957 19.6557C140.036 20.4876 139.203 21.4516 138.526 22.472C135.909 26.418 135.283 31.4878 136.858 35.9875C137.456 37.6945 138.392 39.3511 139.524 40.701C140.046 41.3252 140.972 42.2456 141.538 42.7012C143.547 44.3239 145.811 45.3486 148.296 45.7605C151.096 46.2239 154.006 45.8215 156.578 44.6154C158.271 43.8193 159.729 42.7545 161.065 41.3363C161.454 40.9247 162.331 39.9306 162.278 39.9658C162.26 39.976 161.917 40.2447 161.517 40.5606C161.117 40.8765 160.629 41.2479 160.428 41.3836C158.894 42.4353 157.199 43.0907 155.349 43.3495C154.868 43.418 153.84 43.4688 153.368 43.45C150.961 43.3513 148.654 42.5467 146.735 41.1312C146.14 40.6933 145.364 39.989 144.899 39.4656C143.181 37.5272 142.145 35.2768 141.781 32.6819C141.702 32.1247 141.652 31.0219 141.682 30.4575C141.812 27.8405 142.634 25.5022 144.156 23.4257C144.422 23.0619 145.13 22.2583 145.474 21.9262C148.323 19.1944 152.241 18.0429 156.041 18.8206C157.46 19.1136 158.762 19.6325 159.984 20.3965C160.592 20.7775 160.941 21.0411 161.769 21.75C162.45 22.3319 162.611 22.4654 162.57 22.4133C162.23 21.9921 161.362 20.9541 161.18 20.7511C160.084 19.5357 158.808 18.5184 157.394 17.7371C155.484 16.6824 153.382 16.0868 151.147 15.9687C150.792 15.9495 149.489 15.9796 149.181 16.0122Z" fill="#D49711"/>
</g>
<defs>
<clipPath id="clip0_2104_3">
<rect width="27" height="30" fill="white" transform="translate(136 16)"/>
</clipPath>
</defs>
</svg>
