<svg width="199" height="60" viewBox="0 0 199 60" fill="none" xmlns="http://www.w3.org/2000/svg">
<path d="M173.5 25H103.5C100.739 25 100 26.1193 100 27.5C100 28.8807 100.739 30 103.5 30H173.5C176.261 30 177 28.8807 177 27.5C177 26.1193 176.261 25 173.5 25Z" fill="#D49711"/>
<path d="M55.4804 21.3217L58.5397 25.4505L63.1734 23.9358L60.3218 28.2872L63.381 32.416L58.5098 30.5891L55.6582 34.9405L55.6881 29.8019L50.8168 27.975L55.4505 26.4603L55.4804 21.3217Z" fill="#D49711"/>
<g clip-path="url(#clip0_2107_118)">
<path d="M40.1814 13.0122C39.7332 13.0628 39.1569 13.1472 38.8185 13.2117C36.2791 13.7078 33.9005 14.9006 31.9567 16.6557C31.0361 17.4876 30.2034 18.4516 29.5257 19.472C26.9087 23.418 26.2827 28.4879 27.8583 32.9875C28.4557 34.6945 29.3921 36.3511 30.5241 37.7011C31.0458 38.3252 31.972 39.2456 32.5384 39.7012C34.5471 41.3239 36.8111 42.3486 39.2957 42.7605C42.0965 43.224 45.0064 42.8215 47.5777 41.6154C49.2711 40.8193 50.7294 39.7545 52.065 38.3363C52.4538 37.9248 53.3307 36.9306 53.2777 36.9659C53.2599 36.976 52.9171 37.2448 52.5172 37.5606C52.1172 37.8765 51.6288 38.2479 51.4279 38.3836C49.8939 39.4354 48.1988 40.0908 46.3494 40.3495C45.8679 40.418 44.8396 40.4688 44.3678 40.45C41.961 40.3514 39.6545 39.5467 37.7347 38.1312C37.1395 37.6933 36.364 36.9891 35.8992 36.4656C34.1812 34.5272 33.1454 32.2768 32.7812 29.6819C32.7017 29.1247 32.6523 28.0219 32.6816 27.4575C32.8124 24.8405 33.6336 22.5022 35.1558 20.4257C35.4216 20.0619 36.1296 19.2583 36.4741 18.9262C39.3229 16.1944 43.2413 15.043 47.0412 15.8206C48.4603 16.1136 49.7621 16.6325 50.9839 17.3965C51.5924 17.7775 51.9409 18.0411 52.7689 18.7501C53.4502 19.3319 53.6109 19.4654 53.5699 19.4133C53.2302 18.9922 52.3625 17.9542 52.1805 17.7512C51.0841 16.5357 49.8077 15.5184 48.3941 14.7371C46.4836 13.6825 44.3822 13.0868 42.1474 12.9687C41.7916 12.9495 40.4894 12.9796 40.1814 13.0122Z" fill="#D49711"/>
</g>
<defs>
<clipPath id="clip0_2107_118">
<rect width="27" height="30" fill="white" transform="translate(27 13)"/>
</clipPath>
</defs>
</svg>
