<svg width="199" height="60" viewBox="0 0 199 60" fill="none" xmlns="http://www.w3.org/2000/svg">
<path d="M99.5 27H29.5C26.7386 27 26 28.1193 26 29.5C26 30.8807 26.7386 32 29.5 32H99.5C102.261 32 103 30.8807 103 29.5C103 28.1193 102.261 27 99.5 27Z" fill="#D49711"/>
<path d="M166.48 23.3217L169.54 27.4505L174.173 25.9358L171.322 30.2872L174.381 34.416L169.51 32.5891L166.658 36.9405L166.688 31.8019L161.817 29.975L166.451 28.4603L166.48 23.3217Z" fill="#D49711"/>
<g clip-path="url(#clip0_2107_117)">
<path d="M151.181 15.0122C150.733 15.0628 150.157 15.1472 149.819 15.2117C147.279 15.7078 144.901 16.9006 142.957 18.6557C142.036 19.4876 141.203 20.4516 140.526 21.472C137.909 25.418 137.283 30.4878 138.858 34.9875C139.456 36.6945 140.392 38.3511 141.524 39.701C142.046 40.3252 142.972 41.2456 143.538 41.7012C145.547 43.3239 147.811 44.3486 150.296 44.7605C153.096 45.2239 156.006 44.8215 158.578 43.6154C160.271 42.8193 161.729 41.7545 163.065 40.3363C163.454 39.9248 164.331 38.9306 164.278 38.9658C164.26 38.976 163.917 39.2448 163.517 39.5606C163.117 39.8765 162.629 40.2479 162.428 40.3836C160.894 41.4353 159.199 42.0907 157.349 42.3495C156.868 42.418 155.84 42.4688 155.368 42.45C152.961 42.3514 150.654 41.5467 148.735 40.1312C148.14 39.6933 147.364 38.989 146.899 38.4656C145.181 36.5272 144.145 34.2768 143.781 31.6819C143.702 31.1247 143.652 30.0219 143.682 29.4575C143.812 26.8405 144.634 24.5022 146.156 22.4257C146.422 22.0619 147.13 21.2583 147.474 20.9262C150.323 18.1944 154.241 17.0429 158.041 17.8206C159.46 18.1136 160.762 18.6325 161.984 19.3965C162.592 19.7775 162.941 20.0411 163.769 20.75C164.45 21.3319 164.611 21.4654 164.57 21.4133C164.23 20.9921 163.362 19.9542 163.18 19.7512C162.084 18.5357 160.808 17.5184 159.394 16.7371C157.484 15.6824 155.382 15.0868 153.147 14.9687C152.792 14.9495 151.489 14.9796 151.181 15.0122Z" fill="#D49711"/>
</g>
<defs>
<clipPath id="clip0_2107_117">
<rect width="27" height="30" fill="white" transform="translate(138 15)"/>
</clipPath>
</defs>
</svg>
